HIERARCHY
ROOT Hips
{
	OFFSET 0.00000 0.00000 0.00000
	CHANNELS 6 Xposition Yposition Zposition Yrotation Zrotation Xrotation 
	JOINT Lumbar
	{
		OFFSET 0 0 0
		CHANNELS 3 Zrotation Xrotation Yrotation
		JOINT Neck
		{
			OFFSET 0.00 0.2701 0.00
			CHANNELS 3 Zrotation Xrotation Yrotation
			End Site
			{
				OFFSET 0.00 0.1379 0.00
			}
		}
		JOINT RightShoulder
		{
			OFFSET 0.0119 0.2289 0.1181
			CHANNELS 3 Zrotation Xrotation Yrotation
			JOINT RightElbow
			{
				OFFSET 0.00 -0.1475 0.00
				CHANNELS 2 Zrotation Yrotation
				JOINT RightWrist
				{
					OFFSET 0.00 -0.1605 0.00
					CHANNELS 2 Zrotation Xrotation
					End Site
					{
						OFFSET 0.0040 -0.1068 0.0006
					}
				}
			}
		}
		JOINT LeftShoulder
		{
			OFFSET 0.0119 0.2289 -0.1181
			CHANNELS 3 Zrotation Xrotation Yrotation
			JOINT LeftElbow
			{
				OFFSET 0.00 -0.1475 0.00
				CHANNELS 2 Zrotation Yrotation
				JOINT LeftWrist
				{
					OFFSET 0.00 -0.1605 0.00
					CHANNELS 2 Zrotation Xrotation
					End Site
					{
						OFFSET 0.0040 -0.1068 -0.0006
					}
				}
			}
		}
	}
	JOINT RightHip
	{
		OFFSET 0.0316 -0.0424 0.0458
		CHANNELS 3 Zrotation Xrotation Yrotation
		JOINT RightKnee
		{
			OFFSET 0.00 -0.2438 0.00
			CHANNELS 1 Zrotation
			JOINT RightAnkle
			{
				OFFSET 0.00 -0.2449 0.00
				CHANNELS 3 Zrotation Xrotation Yrotation
				End Site
				{
					OFFSET 0.1237 -0.0542 0.0051
				}
			}
		}
	}
	JOINT LeftHip
	{
		OFFSET 0.0316 -0.0424 -0.0458
		CHANNELS 3 Zrotation Xrotation Yrotation
		JOINT LeftKnee
		{
			OFFSET 0.00 -0.2438 0.00
			CHANNELS 1 Zrotation
			JOINT LeftAnkle
			{
				OFFSET 0.00 -0.2449 0.00
				CHANNELS 3 Zrotation Xrotation Yrotation
				End Site
				{
					OFFSET 0.1237 -0.0542 -0.0051
				}
			}
		}
	}
}
MOTION
Frames: 14
Frame Time: 0.02
-0 0.57926 -0 181.85173 0 -3.77439 2.8022 4.23283 -0.39477 -0.51441 -2.48269 -2.64489 -12.5868 -7.78152 -28.6595 5.78552 76.13646 -1.79026 4.29392 -11.46581 10.22258 45.09219 5.78516 -67.64926 -7.29972 -1.52708 -6.56992 5.95858 -0.99103 -4.41929 3.41619 -3.58854 -5.9453 -3.09376 3.1991 -11.41735 -5.76795 6.52802 4.12766 5.62113
0.0002 0.57919 4e-05 181.89993 0 -3.77307 3.06267 4.1718 -0.50206 -1.17781 -2.20671 -2.69325 -9.93968 -8.56837 -24.87303 6.24523 76.77905 -1.99143 2.72345 -8.25024 10.70712 39.05453 6.23208 -70.58319 -7.36116 -0.55459 -6.57785 6.01098 0.3985 -4.3871 3.29251 -3.84989 -7.37213 -3.08596 3.20084 -11.48887 -5.73291 6.52622 4.12513 5.62676
0.00039 0.57912 8e-05 181.94749 0 -3.77183 3.32272 4.11107 -0.60872 -1.83901 -1.93196 -2.74101 -7.29919 -9.35124 -21.10281 6.70562 77.41793 -2.19159 1.16372 -5.04314 11.18797 33.04908 6.68077 -73.49446 -7.4222 0.41106 -6.58545 6.06271 1.77105 -4.3555 3.17036 -4.10797 -8.78134 -3.07811 3.20256 -11.55977 -5.69835 6.52439 4.12265 5.63247
0.00059 0.57905 0.00012 181.99301 0 -3.77091 3.58301 4.05111 -0.7139 -2.49735 -1.65951 -2.78685 -4.6637 -10.12657 -17.36729 7.17148 78.04756 -2.38985 -0.36571 -1.84345 11.66051 27.1167 7.13883 -76.34277 -7.48089 1.356 -6.59169 6.11212 3.08408 -4.326 3.05367 -4.35451 -10.12879 -3.06987 3.20427 -11.6289 -5.66534 6.52251 4.12033 5.63856
0.00079 0.57897 0.00015 182.04939 0 -3.76833 3.84128 3.98726 -0.8269 -3.17025 -1.37494 -2.84291 -2.00686 -10.94271 -13.45585 7.60625 78.72537 -2.59839 -2.05245 1.38968 12.17918 20.80101 7.54478 -79.52334 -7.55037 2.40729 -6.60504 6.17364 4.7062 -4.28546 2.9087 -4.66094 -11.79717 -3.06356 3.20609 -11.70744 -5.62411 6.52097 4.11715 5.64265
0.00097 0.57891 0.00019 182.08271 0 -3.76923 4.10408 3.93159 -0.92327 -3.81207 -1.11623 -2.87727 0.60563 -11.67115 -9.91506 8.10778 79.30115 -2.78484 -3.40692 4.55274 12.59834 15.29983 8.0622 -81.99885 -7.59809 3.23484 -6.60341 6.20963 5.67717 -4.26822 2.82323 -4.84123 -12.78933 -3.05324 3.20766 -11.76595 -5.60028 6.51868 4.11579 5.65097
0.00112 0.57894 0.00026 182.05122 0 -3.78037 4.38271 3.89885 -0.97441 -4.37922 -0.92472 -2.85057 3.13367 -12.17349 -7.3826 8.80255 79.59649 -2.91482 -3.82971 7.56927 12.756 11.9994 8.89929 -82.51997 -7.57584 3.42542 -6.55807 6.17222 4.77426 -4.31796 2.90974 -4.65824 -11.83613 -3.03059 3.2087 -11.76914 -5.62586 6.51452 4.11969 5.67149
0.00125 0.579 0.00033 181.99662 0 -3.7949 4.66551 3.87427 -1.00869 -4.91325 -0.75983 -2.8021 5.61154 -12.5848 -5.22524 9.56382 79.78904 -3.02208 -3.92008 10.5084 12.81069 9.52724 9.84758 -82.33307 -7.53375 3.39355 -6.498 6.10951 3.2265 -4.39077 3.05505 -4.35037 -10.21314 -3.0041 3.20947 -11.75212 -5.66877 6.50957 4.12541 5.69619
0.00138 0.57904 0.0004 181.95326 0 -3.80746 4.94476 3.84571 -1.05029 -5.45627 -0.58529 -2.76432 8.09243 -13.02807 -2.90179 10.28984 80.02796 -3.13663 -4.17226 13.45804 12.90433 6.70271 10.73853 -82.47304 -7.50672 3.47644 -6.44612 6.06023 2.02225 -4.45137 3.16852 -4.10919 -8.94647 -2.98012 3.21025 -11.74434 -5.7029 6.50483 4.13017 5.71867
0.00153 0.57909 0.00047 181.90674 0 -3.82185 5.23143 3.81832 -1.0933 -6.02608 -0.40059 -2.72334 10.66152 -13.5114 -0.55642 11.03718 80.26779 -3.26291 -4.37914 16.51712 13.03204 3.77431 11.65852 -82.58364 -7.4528 3.50278 -6.38791 6.00286 0.60666 -4.51927 3.30338 -3.82638 -7.46219 -2.95285 3.21147 -11.73629 -5.7409 6.50072 4.13546 5.74253
0.00164 0.57913 0.00053 181.86137 0 -3.83324 5.50301 3.79042 -1.12941 -6.53061 -0.24319 -2.68366 13.02858 -13.88909 1.64937 11.7557 80.48194 -3.36067 -4.60122 19.32259 13.0631 1.26277 12.54386 -82.59688 -7.45193 3.59261 -6.33942 5.95629 -0.52385 -4.57743 3.40789 -3.60023 -6.27015 -2.93159 3.21176 -11.72406 -5.77488 6.49514 4.14009 5.76449
0.00163 0.57919 0.00054 181.82425 0 -3.83544 5.73746 3.75905 -1.15017 -6.8771 -0.15605 -2.65442 14.90511 -14.00316 3.60455 12.38008 80.6472 -3.37391 -4.94825 21.50895 12.86322 -0.33458 13.31081 -82.42853 -7.58584 3.92507 -6.32102 5.94613 -0.69286 -4.60329 3.41223 -3.56457 -6.06517 -2.92737 3.20915 -11.70464 -5.79431 6.48556 4.14235 5.78049
0.00157 0.57924 0.00052 181.78916 0 -3.83454 5.95548 3.72692 -1.16462 -7.15629 -0.09506 -2.62693 16.56888 -14.01323 5.42416 12.97251 80.79218 -3.36122 -5.32133 23.42994 12.56766 -1.53428 14.03762 -82.19975 -7.77588 4.32682 -6.31299 5.94765 -0.55584 -4.61852 3.3844 -3.58961 -6.17433 -2.92944 3.20568 -11.68184 -5.80898 6.4746 4.1439 5.79447
0.00154 0.5793 0.00052 181.75356 0 -3.83513 6.17751 3.69517 -1.18225 -7.45727 -0.02134 -2.59765 18.29529 -14.06686 7.27785 13.57893 80.94673 -3.36803 -5.68197 25.43328 12.30885 -2.89426 14.78063 -82.05888 -7.95242 4.68826 -6.30044 5.94357 -0.56981 -4.6385 3.37256 -3.58458 -6.12904 -2.92898 3.20285 -11.66091 -5.82528 6.46433 4.14581 5.80907
